<svg width="16" height="16" viewBox="0 0 16 16" fill="none" xmlns="http://www.w3.org/2000/svg">
<g id="Group">
<g id="Group_2">
<path id="Vector" d="M12.9339 10.3214C12.1261 9.51357 11.1646 8.91556 10.1155 8.55356C11.2391 7.7797 11.9773 6.48457 11.9773 5.02011C11.9773 2.65582 10.0538 0.7323 7.68946 0.7323C5.32517 0.7323 3.40165 2.65582 3.40165 5.02011C3.40165 6.48457 4.13982 7.7797 5.26343 8.55356C4.21436 8.91556 3.25285 9.51357 2.44503 10.3214C1.04419 11.7222 0.272705 13.5847 0.272705 15.5658H1.43157C1.43157 12.1152 4.23884 9.30792 7.68946 9.30792C11.1401 9.30792 13.9474 12.1152 13.9474 15.5658H15.1062C15.1062 13.5847 14.3347 11.7222 12.9339 10.3214ZM7.68946 8.14906C5.96417 8.14906 4.56052 6.74544 4.56052 5.02011C4.56052 3.29479 5.96417 1.89117 7.68946 1.89117C9.41476 1.89117 10.8184 3.29479 10.8184 5.02011C10.8184 6.74544 9.41476 8.14906 7.68946 8.14906Z" fill="white"/>
</g>
</g>
</svg>
