<svg width="16" height="15" viewBox="0 0 16 15" fill="none" xmlns="http://www.w3.org/2000/svg">
<g id="Group 159">
<path id="Vector" d="M3.96348 12.4326C3.96348 11.5689 4.66361 10.8687 5.52731 10.8687C6.391 10.8687 7.09116 11.5689 7.09113 12.4326H3.96348ZM3.96348 12.4326C3.96348 13.2963 4.66364 13.9964 5.52731 13.9964M3.96348 12.4326L5.52731 13.9964M5.52731 13.9964C6.391 13.9964 7.09113 13.2962 7.09113 12.4326L5.52731 13.9964ZM6.19193 12.4326V12.4326C6.19195 12.7997 5.89438 13.0972 5.52731 13.0972C5.16024 13.0972 4.86268 12.7997 4.86268 12.4326C4.86268 12.0655 5.16024 11.768 5.52731 11.768C5.89437 11.768 6.19193 12.0655 6.19193 12.4326Z" fill="white" stroke="white" stroke-width="0.2625"/>
<path id="Vector_2" d="M12.2425 12.4326V12.4326C12.2425 12.7997 11.9449 13.0972 11.5778 13.0972C11.2108 13.0972 10.9132 12.7997 10.9132 12.4326C10.9132 12.0655 11.2108 11.768 11.5778 11.768C11.9449 11.768 12.2425 12.0655 12.2425 12.4326ZM11.5778 10.8687C10.7141 10.8687 10.014 11.5689 10.014 12.4326C10.014 13.2963 10.7142 13.9964 11.5778 13.9964C12.4415 13.9964 13.1417 13.2962 13.1417 12.4326C13.1417 11.5689 12.4415 10.8687 11.5778 10.8687Z" fill="white" stroke="white" stroke-width="0.2625"/>
<path id="Vector_3" d="M14.908 2.5604L14.9081 2.56035L14.9051 2.55707C14.8169 2.46076 14.6963 2.40048 14.5664 2.38771L14.5665 2.38725L14.5554 2.3871L4.28674 2.24514L4.02939 1.45877L4.02941 1.45877L4.02873 1.4568C3.80879 0.819103 3.21163 0.38859 2.53711 0.381453L2.53711 0.381445H2.53572H1.46923C1.22092 0.381445 1.01963 0.582734 1.01963 0.831049C1.01963 1.07936 1.22092 1.28065 1.46923 1.28065H2.53421C2.82462 1.28764 3.08022 1.47416 3.17547 1.74865L5.18096 7.79669L5.0418 8.11677L5.0417 8.11673L5.0398 8.12164C4.84701 8.61878 4.90491 9.1783 5.19536 9.62543L5.19563 9.62585C5.48403 10.0661 5.96923 10.3379 6.49532 10.3537L6.49532 10.3537H6.49926H12.6913C12.9396 10.3537 13.1409 10.1524 13.1409 9.90413C13.1409 9.65581 12.9396 9.45452 12.6913 9.45452H6.50095C6.27279 9.44829 6.06288 9.32805 5.94206 9.1343L5.94202 9.13424C5.82137 8.94096 5.79598 8.70311 5.87292 8.48875L5.96757 8.27582L12.5935 7.58332L12.5942 7.58324C13.3854 7.49609 14.0363 6.92059 14.2197 6.14592L14.982 2.95383C15.029 2.81913 15.0011 2.66923 14.908 2.5604ZM13.3437 5.94147L13.3436 5.94147L13.3431 5.94392C13.2523 6.35156 12.9062 6.65225 12.4899 6.68526L12.4899 6.68523L12.4867 6.68555L5.97002 7.35914L4.58048 3.14573L13.9893 3.28387L13.3437 5.94147Z" fill="white" stroke="white" stroke-width="0.2625"/>
</g>
</svg>
